<?xml version="1.0" standalone="no"?>
<!DOCTYPE svg PUBLIC "-//W3C//DTD SVG 20010904//EN"
 "http://www.w3.org/TR/2001/REC-SVG-20010904/DTD/svg10.dtd">
<svg version="1.0" xmlns="http://www.w3.org/2000/svg"
 width="501.000000pt" height="1024.000000pt" viewBox="0 0 501.000000 1024.000000"
 preserveAspectRatio="xMidYMid meet">
<metadata>
Created by potrace 1.15, written by Peter Selinger 2001-2017
</metadata>
<g transform="translate(0.000000,1024.000000) scale(0.100000,-0.100000)"
fill="#000000" stroke="none">
<path d="M1558 10233 c514 -2 1351 -2 1860 0 510 1 90 2 -933 2 -1023 0 -1440
-1 -927 -2z"/>
<path d="M1225 9960 c-9 -10 -17 -31 -17 -45 0 -14 8 -35 17 -45 16 -18 31
-20 131 -20 110 0 113 1 133 27 23 28 21 54 -7 86 -13 14 -33 17 -127 17 -99
0 -114 -2 -130 -20z"/>
<path d="M3643 9799 c-43 -27 -59 -76 -40 -122 27 -64 89 -85 147 -50 60 35
67 108 16 159 -40 40 -75 44 -123 13z"/>
<path d="M1692 9681 c-8 -5 -12 -17 -10 -27 3 -18 29 -19 806 -22 710 -2 803
0 808 13 4 8 1 22 -6 30 -11 13 -115 15 -799 15 -432 0 -792 -4 -799 -9z"/>
<path d="M282 9098 c-9 -9 -12 -887 -12 -3891 0 -3683 1 -3880 17 -3893 15
-11 401 -13 2199 -14 2100 0 2182 1 2197 18 16 17 17 302 17 3889 0 3736 -1
3870 -18 3886 -17 16 -184 17 -2203 17 -1686 0 -2188 -3 -2197 -12z m3168 -75
c1 -17 1 -17 11 0 22 38 55 2 51 -55 -1 -25 4 -23 49 22 22 22 44 40 48 40 5
0 8 -37 7 -82 l-1 -83 -87 -3 c-49 -1 -88 -1 -88 2 0 3 11 17 25 32 24 26 36
82 15 69 -5 -3 -10 -13 -10 -21 0 -8 -10 -14 -25 -14 -20 0 -25 5 -25 25 0 31
16 33 23 3 4 -12 9 -19 13 -15 4 4 -2 20 -14 37 -12 16 -19 36 -16 44 8 21 24
20 24 -1z m-2350 -10 c30 -17 40 -39 40 -86 0 -30 -42 -81 -62 -75 -16 6 -16
59 0 66 12 4 11 7 -2 14 -12 7 -14 13 -6 29 8 15 7 19 -4 19 -8 0 -18 -10 -22
-22 -4 -13 -12 -26 -18 -30 -8 -6 -7 -8 2 -8 7 0 12 -14 12 -35 0 -41 -12 -44
-45 -10 -54 53 -16 153 58 155 11 0 32 -8 47 -17z m325 -15 c3 -13 5 -48 3
-78 l-3 -55 -80 0 -80 0 -3 54 c-6 98 -3 101 83 101 69 0 75 -2 80 -22z m1615
0 c5 -13 9 -20 9 -16 1 4 10 0 21 -9 29 -25 27 -69 -4 -77 -13 -3 -26 -15 -29
-26 -4 -17 -13 -20 -56 -20 -40 0 -53 4 -58 18 -10 25 -26 39 -41 34 -8 -2
-12 8 -12 32 0 22 5 36 13 36 7 0 21 11 31 25 16 21 27 25 68 25 41 0 50 -3
58 -22z m176 7 c-5 -13 -2 -14 15 -5 11 6 29 8 39 5 12 -4 20 -2 20 4 0 18 26
12 45 -9 16 -17 16 -20 2 -20 -13 0 -14 -5 -6 -29 14 -39 -6 -81 -45 -100 -25
-12 -33 -11 -62 3 -37 17 -50 49 -41 96 4 18 2 30 -5 32 -9 3 -8 9 2 21 19 21
44 22 36 2z m604 -5 c18 -18 20 -31 18 -88 l-3 -67 -58 -3 -58 -3 3 83 c2 55
7 83 15 83 6 0 15 3 19 8 14 13 44 7 64 -13z m840 -3935 l0 -3725 -2175 0
-2175 0 0 3728 0 3727 2175 -3 2175 -2 0 -3725z"/>
<path d="M1394 6590 c-47 -19 -67 -77 -42 -123 16 -31 35 -44 93 -63 75 -24
95 -40 95 -73 0 -38 -24 -56 -75 -56 -44 0 -85 25 -85 52 0 7 -11 13 -25 13
-62 0 9 -92 81 -106 100 -19 183 62 142 139 -16 31 -35 44 -93 63 -75 25 -95
40 -95 74 0 35 26 52 76 52 39 0 62 -15 74 -48 6 -14 16 -21 27 -20 31 5 26
35 -10 71 -32 32 -40 35 -88 34 -30 0 -64 -4 -75 -9z"/>
<path d="M1647 6503 c-2 -5 -5 -65 -6 -135 l-2 -128 25 0 26 0 0 95 c0 107 14
135 70 135 41 0 50 -23 50 -134 l0 -96 26 0 27 0 -5 116 c-4 107 -6 118 -27
135 -28 23 -88 25 -119 3 -20 -14 -22 -14 -22 0 0 16 -35 23 -43 9z"/>
<path d="M1983 6500 c-59 -24 -84 -150 -43 -217 26 -44 85 -62 137 -42 131 50
99 271 -39 268 -18 0 -43 -4 -55 -9z m106 -56 c31 -39 29 -117 -4 -149 -52
-53 -120 -11 -120 74 0 65 25 101 70 101 24 0 39 -7 54 -26z"/>
<path d="M2200 6497 c0 -13 11 -55 51 -189 15 -53 24 -68 39 -68 15 0 24 18
46 88 16 48 31 91 34 95 4 4 20 -35 36 -88 24 -80 32 -95 50 -95 20 0 29 24
92 253 4 15 0 18 -19 15 -19 -2 -25 -13 -36 -58 -29 -114 -34 -132 -41 -126
-3 4 -18 46 -33 94 -21 69 -30 87 -45 87 -15 0 -26 -20 -50 -95 -18 -54 -34
-88 -37 -80 -3 8 -16 52 -28 98 -17 66 -25 82 -40 82 -10 0 -19 -6 -19 -13z"/>
<path d="M5 2965 c0 -1188 1 -1673 2 -1077 2 596 2 1568 0 2160 -1 592 -2 105
-2 -1083z"/>
<path d="M5 625 c29 -232 178 -441 390 -545 165 -82 -22 -74 2040 -78 1314 -2
1863 0 1920 8 246 34 447 183 551 407 36 76 64 179 63 228 -1 27 -2 26 -10
-10 -25 -105 -42 -162 -61 -204 -25 -56 -93 -157 -112 -168 -8 -4 -16 -12 -18
-18 -2 -5 -8 -9 -14 -9 -6 1 -11 -5 -10 -14 0 -8 -18 -25 -42 -37 -23 -12 -39
-24 -35 -28 3 -4 -1 -7 -11 -7 -9 0 -15 4 -12 9 4 5 -4 6 -16 3 -19 -5 -20 -7
-5 -10 9 -2 17 -8 17 -13 0 -5 -11 -7 -25 -3 -15 4 -25 2 -25 -5 0 -6 -6 -8
-13 -5 -8 3 -36 -5 -63 -16 -120 -52 -48 -50 -2035 -50 -1844 0 -1849 0 -1942
21 -50 12 -99 22 -107 23 -8 0 -21 7 -28 14 -7 6 -18 12 -25 12 -6 0 -2 -7 9
-15 33 -25 2 -16 -49 14 -65 38 -162 133 -208 204 -55 85 -99 197 -106 273 -3
35 -10 67 -16 71 -6 4 -7 -15 -2 -52z"/>
</g>
</svg>
